# xmcd CD database file
#
# Track frame offsets:
#	150
#	16480
#	25657
#	37898
#	54999
#	69211
#	81946
#	100839
#	113844
#	126769
#	135741
#	149831
#
# Disc length: 2180 seconds
#
# Revision: 0
# Processed by: cddbd v1.5.2PL0 Copyright (c) Steve Scherf et al.
# Submitted via: CDex 1.70beta2
#
DISCID=9d08820c
DTITLE=Varios - 4 - Grandes Classicos da Musica Sertaneja
DYEAR=2009
DGENRE=Country
TTITLE0=01 - Cabloca Tereza
TTITLE1=02 - Ranchinho de Taquara
TTITLE2=03 - Todinha Pra Mim
TTITLE3=04 - Lagrimas
TTITLE4=05 - Testamento de um Pobre Velho
TTITLE5=06 - Tenho Fome Tenho Sede
TTITLE6=07 - Terra Roxa
TTITLE7=08 - Moreninha Linda
TTITLE8=09 - Meu Passado
TTITLE9=10 - Tira o Olho Gordo
TTITLE10=11 - Campo Grande  Cidade Morena
TTITLE11=12 - Cai na Gandaia
EXTD=YEAR: 2009
EXTT0=
EXTT1=
EXTT2=
EXTT3=
EXTT4=
EXTT5=
EXTT6=
EXTT7=
EXTT8=
EXTT9=
EXTT10=
EXTT11=
PLAYORDER=
